<svg width="34" height="33" viewBox="0 0 34 33" fill="none" xmlns="http://www.w3.org/2000/svg">
<path fill-rule="evenodd" clip-rule="evenodd" d="M16.7373 0.333344C7.67375 0.333344 0.332642 7.67445 0.332642 16.738C0.332642 23.9971 5.02849 30.1284 11.5494 32.302C12.3696 32.4455 12.6772 31.9534 12.6772 31.5228C12.6772 31.1332 12.6567 29.8413 12.6567 28.4674C8.53499 29.2261 7.46869 27.4626 7.14059 26.5399C6.95604 26.0682 6.15631 24.6123 5.45911 24.2227C4.88495 23.9151 4.06471 23.1564 5.43861 23.1359C6.73048 23.1154 7.65324 24.3252 7.96083 24.8174C9.43725 27.2986 11.7954 26.6014 12.7387 26.1707C12.8822 25.1044 13.3129 24.3867 13.7845 23.9766C10.1345 23.5665 6.32036 22.1516 6.32036 15.8768C6.32036 14.0928 6.95604 12.6164 8.00184 11.468C7.83779 11.0579 7.26363 9.37644 8.16589 7.12079C8.16589 7.12079 9.53978 6.69017 12.6772 8.80227C13.9896 8.43316 15.384 8.24861 16.7784 8.24861C18.1728 8.24861 19.5672 8.43316 20.8795 8.80227C24.0169 6.66966 25.3908 7.12079 25.3908 7.12079C26.2931 9.37644 25.7189 11.0579 25.5549 11.468C26.6007 12.6164 27.2364 14.0723 27.2364 15.8768C27.2364 22.1721 23.4018 23.5665 19.7517 23.9766C20.3464 24.4893 20.859 25.4735 20.859 27.0115C20.859 29.2056 20.8385 30.9691 20.8385 31.5228C20.8385 31.9534 21.1461 32.4661 21.9663 32.302C28.4462 30.1284 33.142 23.9766 33.142 16.738C33.142 7.67445 25.8009 0.333344 16.7373 0.333344Z" fill="white" fill-opacity="0.5"/>
</svg>
