<svg width="24" height="24" viewBox="0 0 24 24" fill="none" xmlns="http://www.w3.org/2000/svg">
<path d="M4.25809 16.5937C3.14142 14.7098 2.75082 12.483 3.15963 10.3314C3.56843 8.17982 4.74852 6.25145 6.47835 4.9083C8.20819 3.56516 10.3688 2.8996 12.5546 3.03658C14.7403 3.17357 16.801 4.10367 18.3496 5.65227C19.8982 7.20088 20.8283 9.26149 20.9653 11.4473C21.1022 13.633 20.4367 15.7937 19.0935 17.5235C17.7504 19.2533 15.822 20.4334 13.6705 20.8422C11.5189 21.251 9.29208 20.8604 7.40809 19.7437V19.7437L4.29559 20.625C4.16807 20.6623 4.03286 20.6646 3.90414 20.6317C3.77543 20.5987 3.65793 20.5318 3.56398 20.4379C3.47004 20.3439 3.40309 20.2264 3.37016 20.0977C3.33724 19.969 3.33954 19.8338 3.37684 19.7062L4.25809 16.5937Z" stroke="#7B4AE2" stroke-opacity="0.5" stroke-linecap="round" stroke-linejoin="round"/>
<path d="M14.261 17.25C13.2741 17.2525 12.2965 17.0599 11.3843 16.6834C10.4722 16.3069 9.64334 15.7539 8.94554 15.0561C8.24774 14.3583 7.6947 13.5295 7.31819 12.6173C6.94168 11.7051 6.74914 10.7275 6.75161 9.74062C6.75409 9.04605 7.03175 8.38078 7.52376 7.89052C8.01578 7.40027 8.68204 7.12499 9.37661 7.125V7.125C9.49121 7.12408 9.60393 7.15407 9.70292 7.21182C9.80191 7.26956 9.8835 7.35292 9.93911 7.45312L11.036 9.36562C11.1012 9.48188 11.1347 9.61327 11.133 9.74657C11.1314 9.87987 11.0947 10.0104 11.0266 10.125L10.1454 11.5969C10.5967 12.601 11.4006 13.4049 12.4047 13.8562L13.8766 12.975C13.9912 12.9069 14.1217 12.8702 14.255 12.8686C14.3883 12.8669 14.5197 12.9004 14.636 12.9656L16.5485 14.0625C16.6487 14.1181 16.732 14.1997 16.7898 14.2987C16.8475 14.3977 16.8775 14.5104 16.8766 14.625C16.8742 15.3188 16.5981 15.9837 16.1084 16.4751C15.6186 16.9666 14.9548 17.2451 14.261 17.25V17.25Z" stroke="#7B4AE2" stroke-opacity="0.5" stroke-linecap="round" stroke-linejoin="round"/>
</svg>
